# xmcd CD database file
#
# Track frame offsets:
#	150
#	26142
#	56290
#	75275
#	102685
#	140390
#	166185
#	192190
#	217070
#	239767
#	268057
#	297332
#
# Disc length: 4307 seconds
#
# Revision: 0
# Processed by: cddbd v1.5.1PL0 Copyright (c) Steve Scherf et al.
# Submitted via: CDex 1.51
#
DISCID=b110d10c
DTITLE=Joanne Brackeen - Popsicle Illusion
DYEAR=1999
DGENRE=Jazz
TTITLE0=If I were a Bell
TTITLE1=Michelle
TTITLE2=Popsicle Illusiion
TTITLE3=From This Moment On
TTITLE4=Bess You Is My Woman
TTITLE5=The Touch of Your Lips
TTITLE6=Telavivision
TTITLE7=Knickerbocker Blues
TTITLE8=High Tea for Stephany
TTITLE9=Prelude to a Kiss
TTITLE10=Nature Boy
TTITLE11=Interview with Joanne
EXTD=YEAR: 1999
EXTT0=
EXTT1=
EXTT2=
EXTT3=
EXTT4=
EXTT5=
EXTT6=
EXTT7=
EXTT8=
EXTT9=
EXTT10=
EXTT11=
PLAYORDER=
